<svg xmlns="http://www.w3.org/2000/svg" xmlns:xlink="http://www.w3.org/1999/xlink" x="0px" y="0px" viewBox="0 0 14.8 19.8" enable-background="new 0 0 14.8 19.8" xml:space="preserve"><polygon fill="#FFFFFF" stroke="#feae46" stroke-miterlimit="10" points="1.7,0.5 13.1,0.5 14.3,6.6 14.3,16.4 0.6,16.4 0.6,6.6"></polygon><rect x="0.6" y="7.8" fill="#feae46" stroke="#feae46" stroke-width="1.1333" stroke-miterlimit="10" width="13.7" height="8.7"></rect><path fill="#FFFFFF" d="M2.8,12.9c-0.6,0-1.1-0.5-1.1-1.1c0-0.6,0.5-1.1,1.1-1.1c0.6,0,1.1,0.5,1.1,1.1"></path><circle fill="#FFFFFF" cx="12" cy="11.8" r="1.1"></circle><path fill="#feae46" d="M1.7,16.4v2.2c0,0.6,0.5,1.1,1.1,1.1c0.6,0,1.1-0.5,1.1-1.1v-2.2H1.7z"></path><path fill="#feae46" d="M10.8,16.4v2.2c0,0.6,0.5,1.1,1.1,1.1c0.6,0,1.1-0.5,1.1-1.1v-2.2H10.8z"></path></svg>
