<svg width="18" height="20" xmlns="http://www.w3.org/2000/svg" xmlns:xlink="http://www.w3.org/1999/xlink" x="0px" y="0px" viewBox="-283.6 387.2 21.3 19.7" enable-background="new -283.6 387.2 21.3 19.7" xml:space="preserve"><path id="XMLID_5_" fill="#63b0b8" d="M-264.4,405c-0.4-0.5-1-1.2-2-1.2l0,0l4.1-8.7h-2.3l-1-5.1h-3.8v-2.8h-7v2.8h-3.9l-1,5.1h-2.3 l4.1,8.7c-1.1,0-1.6,0.7-2,1.2s-0.7,0.8-1.3,0.8v1c1.1,0,1.6-0.7,2-1.2c0.4-0.5,0.7-0.8,1.3-0.8c0.2,0,0.4,0.1,0.6,0.2l0.1,0.1 c0.2,0.1,0.4,0.3,0.5,0.6c0.3,0.3,0.6,0.7,1,0.9c0.3,0.1,0.6,0.2,1,0.2c1.1,0,1.6-0.7,2-1.2c0.4-0.5,0.7-0.8,1.3-0.8 c0.1,0,0.3,0,0.4,0.1c0.1,0,0.2,0.1,0.2,0.1c0.2,0.1,0.4,0.4,0.7,0.7c0.4,0.5,1,1.2,2,1.2c0.3,0,0.5,0,0.7-0.1 c0.6-0.2,1-0.7,1.3-1.1c0.2-0.2,0.3-0.4,0.5-0.5l0.1-0.1c0.2-0.1,0.4-0.2,0.6-0.2c0.6,0,0.8,0.3,1.3,0.8c0.4,0.5,1,1.2,2,1.2v-1 C-263.7,405.8-264,405.5-264.4,405z M-279.3,391h2.8h7h2.8l0.8,4.1h-6.7v8.8c0,0-0.2-0.1-0.5-0.1s-0.5,0.1-0.5,0.1v-8.8h-6.6 L-279.3,391z"></path></svg>
